{"title":"Shetland S03E04 x264 RB58.mp4","uid":13516162,"size":650249442,"categoryP":"video","categoryS":"tv_shows","magnet":"?xt=urn:btih:33a891cf36727ec19e5a90320ade11d2173b6d2e&amp;dn=Shetland+S03E04+x264+RB58.mp4&amp;tr=udp%3A%2F%2Ftracker.leechers-paradise.org%3A6969&amp;tr=udp%3A%2F%2Fzer0day.ch%3A1337&amp;tr=udp%3A%2F%2Fopen.demonii.com%3A1337&amp;tr=udp%3A%2F%2Ftracker.coppersurfer.tk%3A6969&amp;tr=udp%3A%2F%2Fexodus.desync.com%3A6969","seeders":1,"leechers":0,"uploader":"RedBaron58","files":1,"time":1455327066,"description":"Shetland S03E04 x264 mp4\r\n \nhttp://www.imdb.com/title/tt2396135/\r\n\r\nTrailer:\r\n\r\n\r\nPlease be patient My intial upload speed is limited.\r\nThank you for your kind comments and feedback on my other torrents, your feedback is welcome.\r\n\r\n\r\n\r\nAbout the Episode:\r\nAfter learning that Robbie Morton and Michael Thompson were father and son, Perez decides to \r\nrevisit his initial investigation, convinced notorious criminal Arthur McCall lies at the \r\nheart of the case. \r\nWhile Tosh remains in Glasgow to search for missing fiscal Brian McDade, back in Shetland \r\nthe transcript from Michael's last phone call to Freya is recovered and analysed. \r\nDiscovering how little she knew about the man she loved, Freya asks Perez to make the Witness \r\nProtection team speak to her about Michael.\r\n \r\nStarring Douglas Henshall, with Ciaran Hinds\r\n\r\n\r\nI hope you enjoy.\r\n\r\n\r\nTechnical:\r\n\r\nGeneral\r\nComplete name                            : G:Shetland S03E04 x264 RB58.mp4\r\nFormat                                   : MPEG-4\r\nFormat profile                           : Base Media\r\nCodec ID                                 : isom\r\nFile size                                : 620 MiB\r\nDuration                                 : 57mn 1s\r\nOverall bit rate                         : 1 520 Kbps\r\nWriting application                      : Lavf54.63.104\r\n\r\nVideo\r\nID                                       : 1\r\nFormat                                   : AVC\r\nFormat/Info                              : Advanced Video Codec\r\nFormat profile                           :   \r\nFormat settings, CABAC                   : Yes\r\nFormat settings, ReFrames                : 4 frames\r\nCodec ID                                 : avc1\r\nCodec ID/Info                            : Advanced Video Coding\r\nDuration                                 : 57mn 1s\r\nBit rate                                 : 1 400 Kbps\r\nWidth                                    : 832 pixels\r\nHeight                                   : 468 pixels\r\nDisplay aspect ratio                     : 16:9\r\nFrame rate mode                          : Constant\r\nFrame rate                               : 25.000 fps\r\nColor space                              : YUV\r\nChroma subsampling                       : 4:2:0\r\nBit depth                                : 8 bits\r\nScan type                                : Progressive\r\nBits/(Pixel*Frame)                       : 0.144\r\nStream size                              : 571 MiB (92%)\r\nWriting library                          : x264 core 123 r2189 35cf912\r\nEncoding settings                        : cabac=1 / ref=3 / deblock=1:0:0\r\n\r\nAudio\r\nID                                       : 2\r\nFormat                                   : AAC\r\nFormat/Info                              : Advanced Audio Codec\r\nFormat profile                           : LC\r\nCodec ID                                 : 40\r\nDuration                                 : 57mn 1s\r\nBit rate mode                            : Constant\r\nBit rate                                 : 112 Kbps\r\nChannel(s)                               : 2 channels\r\nChannel positions                        : Front: L R\r\nSampling rate                            : 48.0 KHz\r\nCompression mode                         : Lossy\r\nStream size                              : 45.7 MiB (7%)","torrent":{"xt":"urn:btih:33a891cf36727ec19e5a90320ade11d2173b6d2e","amp;dn":"Shetland+S03E04+x264+RB58.mp4","amp;tr":["udp%3A%2F%2Ftracker.leechers-paradise.org%3A6969","udp%3A%2F%2Fzer0day.ch%3A1337","udp%3A%2F%2Fopen.demonii.com%3A1337","udp%3A%2F%2Ftracker.coppersurfer.tk%3A6969","udp%3A%2F%2Fexodus.desync.com%3A6969"],"infoHash":"33a891cf36727ec19e5a90320ade11d2173b6d2e","infoHashBuffer":{"type":"Buffer","data":[51,168,145,207,54,114,126,193,158,90,144,50,10,222,17,210,23,59,109,46]},"announce":[],"urlList":[]}}